<?xml version="1.0" standalone="no"?><!DOCTYPE svg PUBLIC "-//W3C//DTD SVG 1.1//EN" "http://www.w3.org/Graphics/SVG/1.1/DTD/svg11.dtd"><svg t="1567152421929" class="icon" viewBox="0 0 1024 1024" version="1.1" xmlns="http://www.w3.org/2000/svg" p-id="4755" width="80" height="80" xmlns:xlink="http://www.w3.org/1999/xlink"><defs><style type="text/css"></style></defs><path d="M511.998465 33.379225c-264.327154 0-478.616682 214.284411-478.616682 478.617705 0 264.333294 214.289528 478.623845 478.616682 478.623845s478.618729-214.290551 478.618729-478.623845C990.617194 247.663636 776.325619 33.379225 511.998465 33.379225zM386.107243 297.719682c0-76.518744 49.445132-138.53417 125.95262-138.53417 76.503395 0 125.95262 62.015426 125.95262 138.53417L638.012484 524.45773c0 76.524884-49.449225 138.539286-125.95262 138.539286-76.507488 0-125.95262-62.014402-125.95262-138.539286L386.107243 297.719682zM726.117101 524.45773c0 114.38312-77.625962 220.409922-190.602036 226.167043l1.735527 0 0 89.001033 100.697423 0 0 37.640272L386.045845 877.266078l0-37.640272 100.82329 0 0-89.001033 1.610684 0C375.505791 744.867652 297.880853 638.84085 297.880853 524.45773l0-100.626815 36.997636 0 0 100.626815c0 104.172571 72.938196 189.069123 177.119977 189.069123 104.179734 0 175.544085-84.896552 175.544085-189.069123l0-100.626815 38.57455 0L726.117101 524.45773z" p-id="4756"></path></svg>