<?xml version="1.0" standalone="no"?><!DOCTYPE svg PUBLIC "-//W3C//DTD SVG 1.1//EN" "http://www.w3.org/Graphics/SVG/1.1/DTD/svg11.dtd"><svg t="1570675431218" class="icon" viewBox="0 0 1059 1024" version="1.1" xmlns="http://www.w3.org/2000/svg" p-id="4857" width="66.1875" height="64" xmlns:xlink="http://www.w3.org/1999/xlink"><defs><style type="text/css"></style></defs><path d="M382.693517 741.358345c3.742897 8.986483 8.22731 18.714483 13.470897 29.342896 4.484414 9.710345 10.469517 20.95669 17.95531 33.827311 7.485793 12.711724 16.454621 26.641655 26.941793 41.595586 12.711724 17.972966 25.741241 36.969931 38.753104 56.884965 13.170759 19.897379 23.057655 37.85269 29.784276 54.024828 6.744276 16.154483 8.827586 29.484138 6.144 39.953655-2.701241 10.487172-13.329655 15.713103-32.026483 15.713104H419.486897a103.318069 103.318069 0 0 1-41.595587-8.368552c-12.729379-5.702621-24.999724-14.230069-36.528551-25.900138-11.670069-11.670069-23.657931-26.482759-36.069518-44.455724a898.52469 898.52469 0 0 1-39.953655-64.194207c-17.213793-28.601379-29.342897-53.442207-36.069517-74.840276-6.744276-21.398069-11.22869-39.194483-13.470897-53.424552-3.001379-16.472276-3.001379-30.825931 0-42.813793 5.985103 0.759172 13.170759 2.259862 21.398069 4.502069 6.744276 1.50069 14.971586 3.442759 24.699587 5.684966a643.177931 643.177931 0 0 0 33.82731 6.72662c12.711724 3.001379 24.240552 5.826207 34.251034 8.386207 10.187034 2.701241 19.314759 5.384828 27.542069 8.386207 9.445517 2.824828 17.655172 5.985103 25.158621 8.968828zM787.826759 51.411862C820.153379 20.585931 849.337379 3.672276 875.696552 0.706207c26.200276-3.001379 49.540414 3.884138 69.737931 20.797793 20.215172 16.913655 37.570207 41.595586 51.800276 74.222345 14.212414 32.626759 25.882483 68.996414 34.868965 109.108965 8.968828 40.112552 15.713103 82.167172 20.197517 126.022621 4.484414 43.855448 6.744276 85.751172 6.744276 125.563586s-2.860138 79.465931-8.386207 119.278345a726.810483 726.810483 0 0 1-24.699586 111.951448c-10.928552 34.868966-23.657931 65.412414-38.311724 91.753931-14.653793 26.182621-30.984828 45.779862-48.940138 58.509242-17.95531 12.711724-37.252414 17.213793-57.908965 13.470896-20.656552-3.742897-42.213517-18.414345-64.670897-43.855448-21.698207-25.423448-51.182345-46.697931-88.293517-63.611586-37.111172-16.896-77.682759-31.126069-121.520552-42.796138a1335.119448 1335.119448 0 0 0-133.367172-28.142345 16749.53269 16749.53269 0 0 0-123.762759-19.155862c-37.570207-5.684966-68.855172-11.069793-93.996138-16.313379-25.140966-5.225931-39.194483-11.652414-42.195862-19.155862V266.328276c3.001379-10.469517 14.830345-19.155862 35.469241-25.882483 20.656552-6.744276 46.839172-13.170759 78.724414-19.155862 31.867586-6.002759 67.937103-12.570483 108.049655-19.773793a1126.929655 1126.929655 0 0 0 122.721104-29.307586 826.368 826.368 0 0 0 122.138483-47.315862 433.416828 433.416828 0 0 0 107.749517-73.480828zM0 341.768828c0-19.456 6.885517-36.069517 20.797793-49.540414 13.929931-13.470897 30.543448-20.215172 50.14069-20.215173h70.938483V588.270345H70.938483c-19.456 0-36.210759-6.726621-50.14069-20.197517C6.885517 554.443034 0 537.970759 0 518.514759V341.768828z" p-id="4858"></path></svg>