<?xml version="1.0" encoding="UTF-8"?>
<svg width="18px" height="18px" viewBox="0 0 18 18" version="1.1" xmlns="http://www.w3.org/2000/svg" xmlns:xlink="http://www.w3.org/1999/xlink">
    <title>Icon/18/财务@3x</title>
    <defs>
        <rect id="path-1" x="0" y="0" width="18" height="18"></rect>
    </defs>
    <g id="Icon/18/财务" stroke="none" stroke-width="1" fill="none" fill-rule="evenodd">
        <g id="路径-+-路径-11-+-路径-+-多边形-+-椭圆形蒙版">
            <mask id="mask-2" fill="white">
                <use xlink:href="#path-1"></use>
            </mask>
            <g id="蒙版"></g>
            <path d="M17,12.1852995 L17,14.5539977 C17,15.6585672 16.2040618,16.5539977 15.2222222,16.5539977 L2.77777778,16.5539977 C1.79593822,16.5539977 1,15.6585672 1,14.5539977 L1,7.55399767 C1,6.44942817 1.79593822,5.55399767 2.77777778,5.55399767 L15.2222222,5.55399767 C16.2040618,5.55399767 17,6.44942817 17,7.55399767 L17,9.10358853" id="路径" stroke="#000000" stroke-width="1.5" stroke-linecap="round" stroke-linejoin="bevel" mask="url(#mask-2)"></path>
            <line x1="2.73518968" y1="3.55399767" x2="15.186939" y2="3.55399767" id="路径-11" stroke="#000000" stroke-width="1.5" stroke-linecap="round" stroke-linejoin="round" mask="url(#mask-2)"></line>
            <line x1="4.52286345" y1="1.55399767" x2="13.6508481" y2="1.55399767" id="路径" stroke="#000000" stroke-width="1.5" stroke-linecap="round" stroke-linejoin="round" mask="url(#mask-2)"></line>
            <path d="" id="多边形" stroke="#FC708B" stroke-width="2" mask="url(#mask-2)"></path>
            <path d="M9.08911679,8.05399767 C9.91754392,8.05399767 10.6675439,8.38978411 11.2104371,8.93267732 C11.7533304,9.47557054 12.0891168,10.2255705 12.0891168,11.0539977 C12.0891168,11.8824248 11.7533304,12.6324248 11.2104371,13.175318 C10.6675439,13.7182112 9.91754392,14.0539977 9.08911679,14.0539977 C8.26068967,14.0539977 7.51068967,13.7182112 6.96779645,13.175318 C6.42490323,12.6324248 6.08911679,11.8824248 6.08911679,11.0539977 C6.08911679,10.2255705 6.42490323,9.47557054 6.96779645,8.93267732 C7.51068967,8.38978411 8.26068967,8.05399767 9.08911679,8.05399767 Z" id="椭圆形" stroke="#FC708B" mask="url(#mask-2)"></path>
        </g>
    </g>
</svg>