<?xml version="1.0" standalone="no"?><!DOCTYPE svg PUBLIC "-//W3C//DTD SVG 1.1//EN" "http://www.w3.org/Graphics/SVG/1.1/DTD/svg11.dtd"><svg t="1567655754197" class="icon" viewBox="0 0 1024 1024" version="1.1" xmlns="http://www.w3.org/2000/svg" p-id="1979" width="64" height="64" xmlns:xlink="http://www.w3.org/1999/xlink"><defs><style type="text/css"></style></defs><path d="M955.682322 216.877872c-1.069354-31.3459-28.429479-60.977763-60.8345-66.318395 0 0-125.506396-18.833941-195.927224-42.593052C610.994081 78.285443 524.004911 13.064032 524.004911 13.064032 496.880147-5.319655 455.256165-4.171506 430.067495 15.692904c0 0-61.600956 58.947524-176.520231 93.355155-106.198664 40.463553-191.051172 44.623291-191.051172 44.623291-32.036631 3.942797-59.629046 31.978303-60.264518 63.339552 0 0-4.276394 161.15325 1.168615 302.574096 2.038425 253.035867 317.929821 503.201362 477.478527 503.201361 157.0764 0 428.568608-174.297611 471.296737-499.506205 10.556421-193.082434 3.506869-306.402282 3.506869-306.402282zM443.263022 675.971689c-7.982808 7.26854-21.447464 8.100488-30.567164 1.546215l-149.760787-140.27372c-17.873057-17.842358-17.63872-45.027497-0.700965-58.75412 15.700579-12.744249 37.313819-10.447951 55.621781 2.462074l107.166711 101.231538 223.786721-197.348595c25.591852-19.99744 47.738234-9.932205 57.725697 0.233314 13.530148 13.842256 14.967892 37.484711-0.900509 52.009512L443.263022 675.971689z" p-id="1980"></path></svg>