<?xml version="1.0" encoding="UTF-8"?>
<svg width="18px" height="18px" viewBox="0 0 18 18" version="1.1" xmlns="http://www.w3.org/2000/svg" xmlns:xlink="http://www.w3.org/1999/xlink">
    <title>Icon/18/代理@3x</title>
    <defs>
        <rect id="path-1" x="0" y="0" width="18" height="18"></rect>
    </defs>
    <g id="Icon/18/代理" stroke="none" stroke-width="1" fill="none" fill-rule="evenodd">
        <g id="路径-+-矩形-+-矩形-+-矩形备份-+-矩形备份-2-+-路径-10蒙版">
            <mask id="mask-2" fill="white">
                <use xlink:href="#path-1"></use>
            </mask>
            <g id="蒙版"></g>
            <path d="M17,9.79670267 L17,15.4640374 C17,16.0163221 16.5522847,16.4640374 16,16.4640374 L3,16.4640374 C1.8954305,16.4640374 1,15.5686069 1,14.4640374 L1,5.22191005 L1,5.22191005 L16,5.22191005 C16.5522847,5.22191005 17,5.6696253 17,6.22191005 L17,6.96405079 L17,6.96405079" id="路径" stroke="#000000" stroke-width="1.5" stroke-linecap="round" stroke-linejoin="round" mask="url(#mask-2)"></path>
            <path d="M3,1.71189064 L12,1.71189064 C13.1045695,1.71189064 14,2.60732114 14,3.71189064 L14,5.22191005 L14,5.22191005 L1,5.22191005 L1,3.71189064 C1,2.60732114 1.8954305,1.71189064 3,1.71189064 Z" id="矩形" stroke="#000000" stroke-width="1.5" mask="url(#mask-2)"></path>
            <path d="M11.52729,8.41659846 L11.7331158,9.44572745 L10.7039868,9.65155325 L10.498161,8.62242426 L11.52729,8.41659846 Z" id="矩形" stroke="#FC708B" stroke-width="1.5" mask="url(#mask-2)"></path>
            <path d="M11.52729,12.4165985 L11.7331158,13.4457274 L10.7039868,13.6515532 L10.498161,12.6224243 L11.52729,12.4165985 Z" id="矩形备份" stroke="#FC708B" stroke-width="1.5" mask="url(#mask-2)"></path>
            <path d="M6.52728996,10.4165985 L6.73311576,11.4457274 L5.70398677,11.6515532 L5.49816098,10.6224243 L6.52728996,10.4165985 Z" id="矩形备份-2" stroke="#FC708B" stroke-width="1.5" mask="url(#mask-2)" transform="translate(6.115638, 11.034076) rotate(45.000000) translate(-6.115638, -11.034076) "></path>
            <path d="M9.92634149,9.03407586 L8.26897318,9.03407586 C7.9928308,9.03407586 7.76897318,9.25793348 7.76897318,9.53407586 L7.76897318,12.5340759 C7.76897318,12.8102182 7.9928308,13.0340759 8.26897318,13.0340759 L10.6430309,13.0340759 L10.6430309,13.0340759" id="路径-10" stroke="#FC708B" mask="url(#mask-2)"></path>
        </g>
    </g>
</svg>