<?xml version="1.0" standalone="no"?><!DOCTYPE svg PUBLIC "-//W3C//DTD SVG 1.1//EN" "http://www.w3.org/Graphics/SVG/1.1/DTD/svg11.dtd"><svg t="1569494040395" class="icon" viewBox="0 0 1024 1024" version="1.1" xmlns="http://www.w3.org/2000/svg" p-id="15302" width="48" height="48" xmlns:xlink="http://www.w3.org/1999/xlink"><defs><style type="text/css"></style></defs><path d="M511.14921875 866.74326172C264.84277344 866.74326172 65.21679687 598.06601562 65.21679687 514.25878906c0-110.67451172 199.62597656-352.47216797 445.93242188-352.47216797 246.3328125 0 445.95878906 268.03740234 445.95878906 352.47216797 0 88.18945313-199.62597656 352.48359375-445.95878906 352.48359375z m0-649.21025391c-215.521875 0-390.24052734 204.52148438-390.24052734 296.72753907 0 69.84580078 174.72041016 296.73808594 390.24052734 296.73808593 215.52275391 0 390.21503906-230.43339844 390.21503906-296.73808593 0-68.07744141-174.69228516-296.72753906-390.21503906-296.72753907z m0 463.98867188c-92.38183594 0-167.26113281-74.87841797-167.26113281-167.26113281 0-92.32910156 74.87929688-167.23652344 167.26113281-167.23652344 92.32646484 0 167.23388672 74.90654297 167.23388672 167.23652344 0 92.38183594-74.90742188 167.26113281-167.23388672 167.26113281z m0-278.75302735c-61.59638672 0-111.48925781 49.90693359-111.48925781 111.49189454 0 61.59638672 49.89287109 111.48925781 111.48925781 111.48925781 61.56914062 0 111.49013672-49.89199219 111.49013672-111.48925781-0.00087891-61.58496094-49.92099609-111.49189453-111.49013672-111.49189454z" fill="var(--theme)" p-id="15303"></path></svg>