<?xml version="1.0" standalone="no"?><!DOCTYPE svg PUBLIC "-//W3C//DTD SVG 1.1//EN" "http://www.w3.org/Graphics/SVG/1.1/DTD/svg11.dtd"><svg t="1567685225927" class="icon" viewBox="0 0 1024 1024" version="1.1" xmlns="http://www.w3.org/2000/svg" p-id="9466" width="64" height="64" xmlns:xlink="http://www.w3.org/1999/xlink"><defs><style type="text/css"></style></defs><path d="M772.266667 883.2c25.6 25.6 64 25.6 89.6 0 25.6-25.6 25.6-64 0-89.6L230.4 162.133333c-25.6-25.6-64-25.6-89.6 0-25.6 25.6-25.6 64 0 89.6l631.466667 631.466667z" p-id="9467"></path><path d="M861.866667 251.733333c25.6-25.6 25.6-64 0-89.6-25.6-25.6-64-25.6-89.6 0L140.8 793.6c-25.6 25.6-25.6 64 0 89.6s64 25.6 89.6 0l631.466667-631.466667z" p-id="9468"></path></svg>