<?xml version="1.0" standalone="no"?><!DOCTYPE svg PUBLIC "-//W3C//DTD SVG 1.1//EN" "http://www.w3.org/Graphics/SVG/1.1/DTD/svg11.dtd"><svg t="1570675905495" class="icon" viewBox="0 0 1024 1024" version="1.1" xmlns="http://www.w3.org/2000/svg" p-id="15660" width="64" height="64" xmlns:xlink="http://www.w3.org/1999/xlink"><defs><style type="text/css"></style></defs><path d="M947.053714 203.483429H76.946286C34.377143 203.483429 0 240.932571 0 287.012571v653.458286C0 986.550857 34.377143 1024 76.946286 1024h870.107428C989.622857 1024 1024 986.624 1024 940.470857V287.012571c0-46.08-34.377143-83.529143-76.946286-83.529142z m-319.634285 370.395428c20.48 0 30.72 11.117714 30.72 33.499429 0 21.869714-10.24 32.841143-30.72 32.841143H549.668571v30.500571h77.604572c20.553143 0 30.866286 11.190857 30.866286 33.499429 0 21.942857-10.24 32.841143-30.866286 32.841142H549.741714v69.412572c0 15.506286-2.048 25.892571-6.144 31.012571-4.022857 5.266286-12.726857 7.826286-26.331428 7.826286-11.702857 0-20.187429-2.56-25.380572-7.826286-5.12-5.12-7.68-15.506286-7.68-31.012571v-69.412572H407.698286c-20.626286 0-30.866286-10.971429-30.866286-32.914285 0-22.235429 9.947429-33.426286 29.696-33.426286H484.205714v-30.500571H407.698286c-20.626286 0-30.866286-10.971429-30.866286-32.914286 0-22.308571 9.947429-33.426286 29.696-33.426286h43.52c-10.971429-19.529143-22.162286-39.424-33.645714-59.538286l-33.499429-59.465142c-5.851429-10.386286-7.972571-19.529143-6.363428-27.501715a33.938286 33.938286 0 0 1 13.531428-20.406857c8.411429-6.290286 16.237714-8.923429 23.405714-7.68 7.168 1.170286 13.970286 7.68 20.626286 19.748572L517.851429 570.88a56003.876571 56003.876571 0 0 0 81.481142-150.162286 72.996571 72.996571 0 0 1 11.264-15.798857 21.065143 21.065143 0 0 1 10.752-5.997714c3.657143-0.585143 7.314286 0 10.971429 1.828571 3.657143 1.755429 7.606857 4.096 11.629714 6.875429 9.142857 6.363429 14.116571 13.019429 14.848 19.968 0.731429 7.021714-1.901714 16.091429-7.68 27.282286l-66.121143 119.003428h42.422858zM833.828571 125.805714H190.098286c-31.963429 0-57.929143-28.16-57.929143-62.902857 0-34.816 25.965714-62.976 57.929143-62.976h643.803428c31.963429 0 57.929143 28.16 57.929143 62.902857 0 34.816-25.965714 62.976-57.929143 62.976z" p-id="15661"></path></svg>