<?xml version="1.0" standalone="no"?><!DOCTYPE svg PUBLIC "-//W3C//DTD SVG 1.1//EN" "http://www.w3.org/Graphics/SVG/1.1/DTD/svg11.dtd"><svg t="1559294194792" class="icon" style="" viewBox="0 0 1024 1024" version="1.1" xmlns="http://www.w3.org/2000/svg" p-id="8541" xmlns:xlink="http://www.w3.org/1999/xlink" width="128" height="128"><defs><style type="text/css"></style></defs><path d="M947.175962 402.113606c0 54.300985-44.428189 98.725525-98.725525 98.725525L622.790705 500.839131c-54.302201 0-98.725525-44.42454-98.725525-98.725525L524.06518 176.453874c0-54.296119 44.423324-98.724308 98.725525-98.724308l324.384041 0L947.174746 402.113606 947.175962 402.113606zM400.714225 77.710105c54.302201 0 98.725525 44.428189 98.725525 98.725525l0 225.658516c0 54.297336-44.423324 98.725525-98.725525 98.725525L175.055709 500.81967c-54.302201 0-98.725525-44.428189-98.725525-98.725525L76.330184 77.710105 400.714225 77.710105 400.714225 77.710105zM947.669784 949.02173 623.285744 949.02173c-54.302201 0-98.725525-44.423324-98.725525-98.720659L524.560219 624.636473c0-54.297336 44.423324-98.725525 98.725525-98.725525l225.658516 0c54.297336 0 98.725525 44.428189 98.725525 98.725525L947.669784 949.02173 947.669784 949.02173zM76.358159 949.030244 76.358159 624.646203c0-54.297336 44.429405-98.720659 98.725525-98.720659l225.659732 0c54.300985 0 98.73039 44.423324 98.73039 98.720659l0 225.658516c0 54.302201-44.429405 98.725525-98.73039 98.725525L76.358159 949.030244 76.358159 949.030244zM76.358159 949.030244" p-id="8542"></path></svg>