<?xml version="1.0" standalone="no"?><!DOCTYPE svg PUBLIC "-//W3C//DTD SVG 1.1//EN" "http://www.w3.org/Graphics/SVG/1.1/DTD/svg11.dtd"><svg t="1559294227288" class="icon" style="" viewBox="0 0 1087 1024" version="1.1" xmlns="http://www.w3.org/2000/svg" p-id="11183" xmlns:xlink="http://www.w3.org/1999/xlink" width="135.875" height="128"><defs><style type="text/css"></style></defs><path d="M651.143432 1024v-173.936889c0-58.874885-48.955747-107.062699-108.790549-107.062699-59.770807 0-108.726554 48.187814-108.726554 107.062699V1024H229.740041c-59.834802 0-108.790549-48.187814-108.790548-107.062699v-367.968033H59.898796A59.898796 59.898796 0 0 1 0 490.094383c0-12.030955 4.095644-22.718026 9.535172-32.125209L494.805014 25.750723a61.434663 61.434663 0 0 1 82.936795-15.99861 46.523958 46.523958 0 0 1 16.318582 15.99861l483.925959 430.874568c12.158944 18.750371 12.158944 42.876275 2.687766 61.562651a58.682902 58.682902 0 0 1-52.987396 30.781326h-50.299631v367.968033c0 58.874885-48.955747 107.062699-108.790548 107.062699h-217.453109z" p-id="11184"></path></svg>