<?xml version="1.0" encoding="UTF-8"?>
<svg width="18px" height="18px" viewBox="0 0 18 18" version="1.1" xmlns="http://www.w3.org/2000/svg" xmlns:xlink="http://www.w3.org/1999/xlink">
    <title>Icon/18/报表@3x</title>
    <defs>
        <rect id="path-1" x="0" y="0" width="18" height="18"></rect>
    </defs>
    <g id="Icon/18/报表" stroke="none" stroke-width="1" fill="none" fill-rule="evenodd">
        <g id="路径-+-路径-7-+-路径-8蒙版">
            <mask id="mask-2" fill="white">
                <use xlink:href="#path-1"></use>
            </mask>
            <g id="蒙版"></g>
            <polyline id="路径" stroke="#000000" stroke-width="1.5" stroke-linecap="round" stroke-linejoin="round" mask="url(#mask-2)" points="15.1595614 7.05870526 15.1595614 16 9.07978072 12.1604294 3 16 3 2 15.1595614 2 15.1595614 4.71417462"></polyline>
            <path d="M11.8636495,4.62645069 C12.2778631,4.62645069 12.6136495,4.96223713 12.6136495,5.37645069 C12.6136495,5.79066425 12.2778631,6.12645069 11.8636495,6.12645069 L5.86364949,6.12645069 C5.44943593,6.12645069 5.11364949,5.79066425 5.11364949,5.37645069 C5.11364949,4.96223713 5.44943593,4.62645069 5.86364949,4.62645069 L11.8636495,4.62645069 Z" id="路径-7" fill="#FC708B" fill-rule="nonzero" mask="url(#mask-2)"></path>
            <path d="M9.78817835,7.62645069 C10.2023919,7.62645069 10.5381784,7.96223713 10.5381784,8.37645069 C10.5381784,8.79066425 10.2023919,9.12645069 9.78817835,9.12645069 L5.86364949,9.12645069 C5.44943593,9.12645069 5.11364949,8.79066425 5.11364949,8.37645069 C5.11364949,7.96223713 5.44943593,7.62645069 5.86364949,7.62645069 L9.78817835,7.62645069 Z" id="路径-8" fill="#FC708B" fill-rule="nonzero" mask="url(#mask-2)"></path>
        </g>
    </g>
</svg>