<?xml version="1.0" standalone="no"?><!DOCTYPE svg PUBLIC "-//W3C//DTD SVG 1.1//EN" "http://www.w3.org/Graphics/SVG/1.1/DTD/svg11.dtd"><svg t="1559294353639" class="icon" style="" viewBox="0 0 1024 1024" version="1.1" xmlns="http://www.w3.org/2000/svg" p-id="13904" xmlns:xlink="http://www.w3.org/1999/xlink" width="128" height="128"><defs><style type="text/css"></style></defs><path d="M46.545455 111.522909C46.545455 49.952582 96.591127 0 158.366255 0h707.26749C927.371636 0 977.454545 50.082909 977.454545 111.522909v800.954182c0 61.588945-50.045673 111.522909-111.8208 111.522909H158.366255C96.628364 1024 46.545455 973.917091 46.545455 912.477091V111.522909zM214.109091 595.781818c0 20.703418 16.681891 37.236364 37.2736 37.236364h521.234618A37.161891 37.161891 0 0 0 809.890909 595.781818c0-20.703418-16.681891-37.236364-37.2736-37.236363H251.382691A37.161891 37.161891 0 0 0 214.109091 595.781818z m0 186.181818c0 20.703418 16.681891 37.236364 37.2736 37.236364h521.234618A37.161891 37.161891 0 0 0 809.890909 781.963636c0-20.703418-16.681891-37.236364-37.2736-37.236363H251.382691A37.161891 37.161891 0 0 0 214.109091 781.963636z m279.272727-484.072727c0 20.703418 16.663273 37.236364 37.236364 37.236364h242.036363c20.666182 0 37.236364-16.663273 37.236364-37.236364 0-20.703418-16.663273-37.236364-37.236364-37.236364H530.618182c-20.666182 0-37.236364 16.663273-37.236364 37.236364z m-186.181818 93.090909a93.090909 93.090909 0 1 0 0-186.181818 93.090909 93.090909 0 0 0 0 186.181818z" p-id="13905"></path></svg>