<?xml version="1.0" standalone="no"?><!DOCTYPE svg PUBLIC "-//W3C//DTD SVG 1.1//EN" "http://www.w3.org/Graphics/SVG/1.1/DTD/svg11.dtd"><svg t="1559646720559" class="icon" style="" viewBox="0 0 1024 1024" version="1.1" xmlns="http://www.w3.org/2000/svg" p-id="4005" xmlns:xlink="http://www.w3.org/1999/xlink" width="128" height="128"><defs><style type="text/css"></style></defs><path d="M801.928533 341.333333H887.466667a68.266667 68.266667 0 0 1 68.266666 68.266667v546.133333a68.266667 68.266667 0 0 1-68.266666 68.266667H136.533333a68.266667 68.266667 0 0 1-68.266666-68.266667V409.6a68.266667 68.266667 0 0 1 68.266666-68.266667h77.346134C209.578667 132.437333 312.251733 17.066667 512 17.066667c200.021333 0 299.895467 115.780267 289.928533 324.266666zM512 119.466667c-138.376533 0-200.430933 66.423467-195.925333 220.501333h383.658666c9.6256-154.624-49.698133-220.501333-187.733333-220.501333z m-66.1504 580.266666c-1.365333 5.461333-2.116267 11.195733-2.116267 17.066667v136.533333a68.266667 68.266667 0 0 0 136.533334 0v-136.533333c0-5.870933-0.682667-11.605333-2.116267-17.066667a136.533333 136.533333 0 1 0-132.3008 0z" p-id="4006"></path></svg>