<?xml version="1.0" standalone="no"?><!DOCTYPE svg PUBLIC "-//W3C//DTD SVG 1.1//EN" "http://www.w3.org/Graphics/SVG/1.1/DTD/svg11.dtd"><svg t="1559293954449" class="icon" style="" viewBox="0 0 1024 1024" version="1.1" xmlns="http://www.w3.org/2000/svg" p-id="6254" xmlns:xlink="http://www.w3.org/1999/xlink" width="128" height="128"><defs><style type="text/css"></style></defs><path d="M923.969779 1024H100.083677c-63.227661 0-107.43322-53.126508-99.067661-116.805424l95.058441-598.380474c5.380339-40.96 49.221424-73.380881 97.991593-73.380882h54.237288C254.534118 82.510102 369.135338 0 510.030796 0c140.878102 0 255.53139 82.510102 261.762169 235.43322h58.142373c48.822237 0 92.611254 32.420881 98.043661 73.380882L1022.968016 907.194576C1031.385643 970.873492 987.145372 1024 923.969779 1024zM210.241779 406.44122c0 33.358102 28.984407 60.398644 64.685559 60.398644 35.75322 0 64.685559-27.040542 64.68556-60.398644 0-33.340746-28.932339-60.398644-64.68556-60.398644-35.701153 0-64.685559 27.057898-64.685559 60.398644zM510.082864 96.585763c-80.705085 0-146.379932 42.574102-150.597424 129.943864h301.212203c-4.217492-87.369763-69.909695-129.943864-150.614779-129.943864z m242.288813 249.474169c-35.701153 0-64.685559 27.040542-64.685559 60.398644 0 33.32339 28.984407 60.381288 64.685559 60.381288 35.75322 0 64.685559-27.040542 64.68556-60.398644 0-33.340746-28.949695-60.398644-64.68556-60.398644z" p-id="6255"></path></svg>