<?xml version="1.0" standalone="no"?><!DOCTYPE svg PUBLIC "-//W3C//DTD SVG 1.1//EN" "http://www.w3.org/Graphics/SVG/1.1/DTD/svg11.dtd"><svg t="1570675822618" class="icon" viewBox="0 0 1068 1024" version="1.1" xmlns="http://www.w3.org/2000/svg" p-id="13046" width="66.75" height="64" xmlns:xlink="http://www.w3.org/1999/xlink"><defs><style type="text/css"></style></defs><path d="M512.927536 0C227.06087 0 0.927536 226.133333 0.927536 512S227.06087 1024 512.927536 1024s512-226.133333 512-512S798.794203 0 512.927536 0z m96 608c17.066667-17.066667 38.4-25.6 61.866667-29.866667 51.2 0 93.866667 42.666667 93.866667 93.866667s-42.666667 93.866667-93.866667 93.866667-93.866667-42.666667-93.866667-93.866667v-6.4l-168.533333-81.066667c-17.066667 17.066667-36.266667 23.466667-57.6 23.466667-51.2 0-93.866667-42.666667-93.866667-93.866667s42.666667-93.866667 93.866667-93.866666c29.866667 0 57.6 12.8 74.666667 36.266666l157.866666-76.8c-4.266667-6.4-4.266667-17.066667-4.266666-25.6 0-51.2 42.666667-93.866667 93.866666-93.866666s93.866667 42.666667 93.866667 93.866666c0 23.466667-6.4 42.666667-19.2 57.6-10.666667 17.066667-29.866667 29.866667-51.2 32-10.666667 4.266667-17.066667 4.266667-23.466667 4.266667-17.066667 0-32-4.266667-49.066666-10.666667l-181.333334 87.466667v4.266667l166.4 78.933333z" p-id="13047"></path></svg>