<?xml version="1.0" encoding="UTF-8"?>
<svg width="18px" height="18px" viewBox="0 0 18 18" version="1.1" xmlns="http://www.w3.org/2000/svg" xmlns:xlink="http://www.w3.org/1999/xlink">
    <title>Icon/18/权限@3x</title>
    <defs>
        <rect id="path-1" x="0" y="0" width="18" height="18"></rect>
    </defs>
    <g id="Icon/18/权限" stroke="none" stroke-width="1" fill="none" fill-rule="evenodd">
        <g id="路径-2-+-路径-3-+-路径-4-+-路径-4备份-+-多边形蒙版">
            <mask id="mask-2" fill="white">
                <use xlink:href="#path-1"></use>
            </mask>
            <g id="蒙版"></g>
            <polyline id="路径-2" stroke="#000000" stroke-width="1.5" stroke-linecap="round" stroke-linejoin="round" mask="url(#mask-2)" points="2.43509459 16.7385504 2.43509459 1.64108665 10 1.64108665 10 5.20784124 13.6559202 5.20784124 13.6559202 9.18981853"></polyline>
            <line x1="1.23457102" y1="16.7385504" x2="9.61506043" y2="16.7385504" id="路径-3" stroke="#000000" stroke-width="1.5" stroke-linecap="round" stroke-linejoin="round" mask="url(#mask-2)"></line>
            <line x1="4.99605826" y1="6.74822693" x2="8.54550738" y2="6.74822693" id="路径-4" stroke="#000000" stroke-width="1.5" stroke-linecap="round" mask="url(#mask-2)"></line>
            <line x1="4.99605826" y1="9.74822693" x2="8.54550738" y2="9.74822693" id="路径-4备份" stroke="#000000" stroke-width="1.5" stroke-linecap="round" mask="url(#mask-2)"></line>
            <path d="M13.375,10.9381942 L16.0891016,12.3608439 C16.1277767,12.383173 16.1590267,12.4149705 16.180608,12.4523503 C16.2021892,12.48973 16.2141016,12.5326921 16.2141016,12.5773503 L16.2141016,15.4226497 C16.2141016,15.4673079 16.2021892,15.51027 16.180608,15.5476497 C16.1590267,15.5850295 16.1277767,15.616827 16.0891016,15.6391561 L13.625,17.0618058 C13.5476497,17.106464 13.4523503,17.106464 13.375,17.0618058 L10.9108984,15.6391561 C10.8722233,15.616827 10.8409733,15.5850295 10.819392,15.5476497 C10.7978108,15.51027 10.7858984,15.4673079 10.7858984,15.4226497 L10.7858984,12.5773503 C10.7858984,12.5326921 10.7978108,12.48973 10.819392,12.4523503 C10.8409733,12.4149705 10.8722233,12.383173 10.9108984,12.3608439 L13.375,10.9381942 Z" id="多边形" stroke="#FC708B" stroke-width="1.5" mask="url(#mask-2)" transform="translate(13.500000, 14.000000) rotate(90.000000) translate(-13.500000, -14.000000) "></path>
        </g>
    </g>
</svg>