<?xml version="1.0" standalone="no"?><!DOCTYPE svg PUBLIC "-//W3C//DTD SVG 1.1//EN" "http://www.w3.org/Graphics/SVG/1.1/DTD/svg11.dtd"><svg class="icon" width="200px" height="200.00px" viewBox="0 0 1024 1024" version="1.1" xmlns="http://www.w3.org/2000/svg"><path fill="#fff" d="M516.042332 352.112884c-1.892155 0-3.78431-0.172014-5.676466-0.516042L154.640685 287.607593c-15.137242-2.752226-26.318159-15.997312-26.318159-31.478582L128.322526 160.145137c0-52.808332 43.003528-95.983874 95.983874-95.983874L799.865614 64.161263c52.808332 0 95.983874 43.003528 95.983874 95.983874l0 95.983874c0 15.48127-11.008903 28.726356-26.146145 31.478582l-347.812531 63.989249C519.826642 351.94087 517.934487 352.112884 516.042332 352.112884zM192.139761 229.466823l323.730556 58.140769 315.817907-58.140769L831.688224 160.145137c0-17.545439-14.277171-31.994625-31.994625-31.994625L224.134386 128.150512c-17.545439 0-31.994625 14.277171-31.994625 31.994625C192.139761 160.145137 192.139761 229.466823 192.139761 229.466823zM799.865614 959.666723 224.134386 959.666723c-52.808332 0-95.983874-43.003528-95.983874-95.983874L128.150512 384.107509c0-17.717453 14.277171-31.994625 31.994625-31.994625s31.994625 14.277171 31.994625 31.994625l0 479.747354c0 17.717453 14.277171 31.994625 31.994625 31.994625L799.865614 895.849488c17.717453 0 31.994625-14.277171 31.994625-31.994625L831.860239 384.107509c0-17.717453 14.277171-31.994625 31.994625-31.994625 17.717453 0 31.994625 14.277171 31.994625 31.994625l0 479.747354C895.677474 916.663195 852.673946 959.666723 799.865614 959.666723zM607.725853 639.892491c17.717453 0 31.994625-14.277171 31.994625-31.994625s-14.277171-31.994625-31.994625-31.994625l-51.776247 0 76.030237-73.278011c12.729044-12.213002 13.073072-32.510667 0.860071-45.067697-12.213002-12.729044-32.510667-12.901058-45.239711-0.688056l-76.202251 73.622039-73.278011-73.105997c-12.55703-12.55703-32.854695-12.55703-45.239711 0-12.55703 12.55703-12.385016 32.510667 0 45.067697l73.966068 73.622039-51.088191 0c-17.717453 0-31.994625 14.277171-31.994625 31.994625s14.277171 31.994625 31.994625 31.994625L479.919368 640.064505l0 31.994625-64.161263 0c-17.717453 0-31.994625 14.277171-31.994625 31.994625 0 17.717453 14.277171 31.994625 31.994625 31.994625L479.919368 736.048379l0 64.333277c0 17.717453 14.277171 31.994625 31.994625 31.994625 17.717453 0 31.994625-14.277171 31.994625-31.994625l0-64.333277 63.817235 0c17.717453 0 31.994625-14.277171 31.994625-31.994625 0-17.717453-14.277171-31.994625-31.994625-31.994625l-63.817235 0L543.908618 639.892491 607.725853 639.892491z" /></svg>
