<?xml version="1.0" standalone="no"?><!DOCTYPE svg PUBLIC "-//W3C//DTD SVG 1.1//EN" "http://www.w3.org/Graphics/SVG/1.1/DTD/svg11.dtd"><svg t="1567684295743" class="icon" viewBox="0 0 1024 1024" version="1.1" xmlns="http://www.w3.org/2000/svg" p-id="4250" width="64" height="64" xmlns:xlink="http://www.w3.org/1999/xlink"><defs><style type="text/css"></style></defs><path d="M430.867692 492.071385c-19.140923-25.521231-51.042462-51.042462-76.563692-70.183385C271.36 351.625846 194.796308 281.442462 181.956923 77.193846H156.514462C137.373538 77.193846 118.232615 58.052923 118.232615 38.912S137.373538 0.630154 156.514462 0.630154h708.135384c19.140923 0 38.281846 19.140923 38.281846 38.281846S883.790769 77.193846 864.649846 77.193846h-25.521231c-6.301538 204.248615-89.324308 268.051692-172.268307 344.694154-25.521231 19.140923-51.042462 44.662154-76.563693 70.183385 25.521231 25.521231 51.042462 51.042462 76.563693 70.183384 82.944 70.262154 165.888 140.445538 172.268307 344.694154h25.521231c19.140923 0 38.281846 19.140923 38.281846 38.281846 0 19.219692-19.140923 38.360615-38.281846 38.360616H156.514462c-19.140923 0-38.281846-19.140923-38.281847-38.360616 0-19.140923 19.140923-38.281846 38.281847-38.281846h25.52123c6.301538-204.248615 89.324308-268.051692 172.268308-344.694154 25.521231-19.140923 57.422769-44.662154 76.563692-70.104615z m-172.268307 414.877538h31.901538L494.670769 702.700308c6.301538-6.301538 25.442462-6.301538 31.822769 0l204.169847 204.248615h31.901538c-6.301538-172.347077-76.563692-223.389538-146.747077-287.192615-31.901538-31.901538-70.104615-57.501538-102.006154-102.163693-38.281846 44.662154-70.183385 70.262154-108.46523 102.163693-70.183385 63.803077-140.366769 114.845538-146.747077 287.192615z m63.803077-631.886769h389.12c31.901538-44.662154 57.501538-102.163692 57.501538-197.868308h-510.424615c6.301538 95.704615 25.521231 153.206154 63.803077 197.868308z" p-id="4251"></path></svg>