<?xml version="1.0" encoding="UTF-8"?>
<svg width="18px" height="18px" viewBox="0 0 18 18" version="1.1" xmlns="http://www.w3.org/2000/svg" xmlns:xlink="http://www.w3.org/1999/xlink">
    <title>Icon/18/首页</title>
    <defs>
        <rect id="path-1" x="0" y="0" width="18" height="18"></rect>
    </defs>
    <g id="页面-1" stroke="none" stroke-width="1" fill="none" fill-rule="evenodd">
        <g id="Apple-TV备份-10" transform="translate(-41.000000, -108.000000)">
            <g id="侧边栏/2/1" transform="translate(20.000000, 100.000000)">
                <g id="Icon/18/首页" transform="translate(21.000000, 8.000000)">
                    <mask id="mask-2" fill="white">
                        <use xlink:href="#path-1"></use>
                    </mask>
                    <g id="蒙版"></g>
                    <path d="M8.20443886,1.58260562 L2.41208255,6.69262184 C2.15006881,6.92373831 2,7.25628662 2,7.6056661 L2,15.6830583 C2,16.3553949 2.54504387,16.9004388 3.21738045,16.9004388 L14.7826196,16.9004388 C15.4549561,16.9004388 16,16.3553949 16,15.6830583 L16,7.60475662 C16,7.25613788 15.850493,6.92425763 15.5894332,6.69321033 L9.81656829,1.58381825 C9.35655409,1.17660712 8.66521801,1.1759571 8.20443886,1.58230246 L8.20443886,1.58260562 Z" id="路径" stroke="#000000" stroke-width="1.5" fill-rule="nonzero" mask="url(#mask-2)"></path>
                    <path d="M9,8.29347826 C9.41421356,8.29347826 9.75,8.6292647 9.75,9.04347826 L9.75,14.0775623 C9.75,14.4917758 9.41421356,14.8275623 9,14.8275623 C8.58578644,14.8275623 8.25,14.4917758 8.25,14.0775623 L8.25,9.04347826 C8.25,8.6292647 8.58578644,8.29347826 9,8.29347826 Z" id="路径-13" fill="#FC708B" fill-rule="nonzero" mask="url(#mask-2)"></path>
                </g>
            </g>
        </g>
    </g>
</svg>