<?xml version="1.0" standalone="no"?><!DOCTYPE svg PUBLIC "-//W3C//DTD SVG 1.1//EN" "http://www.w3.org/Graphics/SVG/1.1/DTD/svg11.dtd"><svg t="1561351281822" class="icon" viewBox="0 0 1024 1024" version="1.1" xmlns="http://www.w3.org/2000/svg" p-id="2580" width="128" height="128" xmlns:xlink="http://www.w3.org/1999/xlink"><defs><style type="text/css"></style></defs><path d="M506.88 343.04c-40.96 0-71.68 35.84-71.68 76.8s35.84 71.68 71.68 71.68c40.96 0 71.68-35.84 71.68-71.68 5.12-40.96-25.6-76.8-71.68-76.8z m0 0" p-id="2581"></path><path d="M1024 122.88c0-66.56-5.12-71.68-71.68-71.68h-885.76c-66.56 0-66.56 0-66.56 71.68v609.28c0 66.56 5.12 71.68 71.68 71.68h880.64c66.56 0 71.68-5.12 71.68-71.68v-609.28z m-266.24 348.16l-56.32 10.24c-10.24 0-15.36 5.12-20.48 15.36-5.12 10.24 0 15.36 5.12 25.6l20.48 30.72c5.12 10.24 5.12 25.6 0 30.72l-35.84 35.84c-10.24 10.24-20.48 10.24-30.72 5.12l-30.72-20.48c-5.12-5.12-15.36-5.12-25.6-5.12-10.24 5.12-15.36 10.24-15.36 20.48l-5.12 35.84c0 10.24-10.24 20.48-25.6 20.48h-51.2c-10.24 0-20.48-10.24-25.6-20.48l-5.12-35.84c0-10.24-5.12-15.36-15.36-20.48-10.24-5.12-15.36 0-25.6 5.12l-30.72 20.48c-10.24 5.12-20.48 5.12-30.72-5.12l-35.84-35.84c-10.24-10.24-10.24-20.48-5.12-30.72l20.48-30.72c5.12-5.12 5.12-15.36 0-25.6s-10.24-15.36-20.48-15.36l-35.84-5.12c-10.24 0-20.48-10.24-20.48-25.6v-51.2c0-10.24 10.24-20.48 20.48-25.6l35.84-5.12c10.24 0 15.36-5.12 20.48-15.36 5.12-10.24 0-15.36-5.12-25.6l-20.48-30.72c-5.12-10.24-5.12-25.6 5.12-30.72l35.84-35.84c10.24-10.24 20.48-10.24 30.72-5.12l30.72 20.48c5.12 5.12 15.36 5.12 25.6 5.12 10.24-5.12 15.36-10.24 15.36-20.48l5.12-35.84c0-10.24 10.24-20.48 25.6-20.48h51.2c10.24 0 20.48 10.24 25.6 20.48l5.12 35.84c0 10.24 5.12 15.36 15.36 20.48 10.24 5.12 15.36 0 25.6-5.12l30.72-20.48c10.24-5.12 20.48-5.12 30.72 5.12l35.84 35.84c10.24 10.24 10.24 20.48 0 30.72l-20.48 30.72c-5.12 5.12-5.12 15.36-5.12 25.6 5.12 10.24 10.24 15.36 20.48 15.36l35.84 5.12c10.24 0 20.48 10.24 20.48 25.6l5.12 71.68z m-40.96 419.84h-404.48c-46.08 0-81.92 0-81.92 81.92h563.2c5.12-81.92-30.72-81.92-76.8-81.92z m0-40.96" p-id="2582"></path></svg>