<?xml version="1.0" encoding="UTF-8"?>
<svg width="26px" height="26px" viewBox="0 0 26 26" version="1.1" xmlns="http://www.w3.org/2000/svg" xmlns:xlink="http://www.w3.org/1999/xlink">
    <title>编组 8</title>
    <g id="页面-1" stroke="none" stroke-width="1" fill="none" fill-rule="evenodd">
        <g id="Apple-TV备份-11" transform="translate(-1596.000000, -23.000000)">
            <g id="编组-8" transform="translate(1596.000000, 23.000000)">
                <g id="编组-6备份" fill="#FFFFFF">
                    <circle id="椭圆形" opacity="0.400000006" cx="13" cy="13" r="13"></circle>
                    <g id="主题" transform="translate(5.000000, 5.000000)" fill-rule="nonzero" opacity="0">
                        <rect id="矩形" x="0" y="0" width="16" height="16"></rect>
                    </g>
                </g>
                <path d="M12.9190938,7.00140625 C16.2066949,7.00140625 18.8367813,9.63149255 18.8367813,12.9190938 C18.8367813,13.230536 18.8128677,13.5360776 18.7668059,13.8340415 C18.5921417,13.6115922 18.3908335,13.411499 18.1679526,13.2377907 L18.1712246,13.1923456 L18.179253,12.9190937 C18.179253,12.6422376 18.144661,12.4000002 18.1100423,12.1231441 C18.0408316,12.1577495 17.9716209,12.2615655 17.9370156,12.3307895 C17.9024102,12.4346056 17.9024102,12.4692109 17.8331996,12.5384216 C17.7639889,12.6076323 17.6947648,12.6422376 17.6255541,12.7114483 C17.5783137,12.7587071 17.5633239,12.8059596 17.5475525,12.8532101 C17.0860822,12.6262499 16.5668988,12.5 16.0182282,12.5 C15.0983201,12.5 14.2613015,12.8548924 13.6366179,13.4352317 C13.6046251,13.454078 13.5779929,13.4727926 13.5420033,13.4727926 C13.4381873,13.4727926 13.4381873,13.4035819 13.2997659,13.4727926 C13.0921205,13.6112274 13.1959365,13.680438 12.9883044,13.6112274 C12.9675412,13.6043036 12.9453933,13.601533 12.9224146,13.6009776 L12.8624063,13.6034063 L12.8960235,13.6406961 C12.9248613,13.684917 12.9363964,13.7435579 12.9306289,13.7993128 L12.9190938,13.8534648 C12.8498831,13.9572808 12.7460537,14.0610968 12.7114617,14.1649262 C12.676843,14.2687422 12.676843,14.3725449 12.676843,14.4763743 C12.676843,14.5802037 12.6076323,14.4763743 12.676843,14.6494144 C12.6928147,14.6973295 12.7161579,14.737873 12.7400695,14.7744473 C12.5964683,15.1544193 12.5182282,15.5680727 12.5182282,16 C12.5182282,17.1216825 13.0458803,18.1201253 13.8665114,18.7606553 C13.5584676,18.8109184 13.2416732,18.8367813 12.9190938,18.8367813 C9.63149255,18.8367813 7.00140625,16.2066949 7.00140625,12.9190938 C7.00140625,9.63149255 9.6660979,7.00140625 12.9190938,7.00140625 Z M12.9883044,7.69352649 C12.6076323,7.69352649 12.2269601,7.72813183 11.8808933,7.79735588 L11.9155121,7.79735588 C11.846288,7.83196123 11.6732613,7.9703826 11.7770773,8.07419863 C11.8809067,8.14340932 11.9501174,8.00498794 12.0539334,7.9703826 C12.2615655,7.90117191 12.5384216,7.86656657 12.7460537,7.83196123 C12.6768563,7.93577726 12.3653949,7.90115855 12.2615655,7.93577726 C12.1231575,7.9703826 12.1923548,8.00498794 12.0885388,8.17801466 C12.1231441,8.17801466 12.1923548,8.21262001 12.2269601,8.21262001 L12.2269601,8.24723871 C12.1231441,8.24723871 12.0539334,8.21262001 12.0193147,8.3164494 C11.8809067,8.14340932 11.8116827,8.14340932 11.6732613,8.3164494 C11.7770773,8.38566009 11.9155121,8.45487078 11.8116827,8.59329215 C11.7078666,8.76633223 11.6040506,8.55868681 11.742472,8.48947612 C11.6040506,8.42025207 11.5348399,8.35105475 11.4310239,8.45487078 C11.4656292,8.42025207 11.5002212,8.45487078 11.5348399,8.45487078 C11.5002346,8.48947612 11.5002346,8.59329215 11.4656292,8.59329215 C11.4310239,8.62789749 11.2579838,8.55870017 11.1887731,8.55870017 L10.7734956,8.55870017 C10.808101,8.73172689 10.6004689,8.55870017 10.5312582,8.52408146 C10.6350742,8.38566009 10.808101,8.42025207 10.9465223,8.45487078 C11.0503517,8.48947612 11.2579838,8.45487078 11.2579838,8.3164494 C11.1541678,8.28184406 11.0849571,8.28184406 10.981141,8.17801466 C10.981141,8.10880397 10.9465223,8.074212 10.9465223,8.03959329 C10.1159807,8.38566009 9.38924178,8.93935895 8.83554292,9.63149255 C8.97396429,9.73530858 9.11238567,9.83912461 9.14700438,9.87372996 C9.21621507,9.94294065 9.25082041,10.0121513 9.3200311,10.1159807 C9.3200311,10.1159807 9.35463644,10.185178 9.38924178,10.2197968 C9.45845247,10.2890074 9.52767652,10.3582181 9.52767652,10.4274288 C9.52767652,10.5312582 9.49305781,10.6004689 9.49305781,10.7042849 C9.49305781,11.0157464 9.52766316,11.3271945 9.76991393,11.5348399 C9.80451927,11.6040506 9.9083353,11.6386559 9.97754599,11.7078666 C10.0467567,11.7770773 10.0467567,11.846288 9.97754599,11.7770773 C10.0813754,11.9501174 10.2197968,12.1231441 10.3582181,12.2961842 C10.4620342,12.4346056 10.4966395,12.4346056 10.3928235,12.2615655 C10.3236128,12.1231441 10.2197968,12.0193281 10.1505861,11.9155121 C10.1505861,11.8809067 10.081362,11.742472 10.1159807,11.742472 C10.2890074,11.8116827 10.3236128,11.9155121 10.4274288,12.0539334 C10.5312582,12.1923548 10.6350742,12.2615655 10.7042849,12.4346056 C10.7734956,12.6422376 10.8773117,12.7460537 11.0849571,12.8152777 C11.1887731,12.8498831 11.3271945,12.9883044 11.4310239,12.9883044 C11.5348399,13.0229231 11.6040506,12.9190937 11.7078666,12.9883044 C11.7770773,13.0229098 11.8116827,13.1267258 11.9155121,13.1613312 C12.0193281,13.1613312 12.0885388,13.1267258 12.1577495,13.1959365 C12.2615655,13.2651606 12.2961708,13.3689766 12.4000002,13.4381873 C12.4692109,13.507398 12.5730269,13.5766086 12.6422376,13.5766086 L12.6021926,13.5392793 C12.5313593,13.4508994 12.5186471,13.2898787 12.6076323,13.2305552 C12.5730403,13.2651606 12.5730403,13.1613445 12.5384216,13.1267258 C12.5038163,13.0921205 12.4000002,13.1267258 12.3307895,13.1267258 C12.2615789,13.1267258 12.1923548,13.0921205 12.2269601,13.0229098 C12.2269601,12.9190938 12.4692109,12.676843 12.2269601,12.676843 C12.0885388,12.676843 12.0539334,12.884475 11.9155121,12.9190938 C11.7770773,12.9536991 11.6040506,12.8844884 11.5348399,12.7460537 C11.3617998,12.4346056 11.6386559,12.0885388 11.9155121,12.0539334 C12.1577495,12.0539334 12.4692109,11.8809067 12.642251,12.1231441 C12.7114483,12.1923548 12.8152777,12.4692109 12.9883044,12.3307895 C13.0229098,12.2961708 12.9536991,12.0539334 12.9190938,11.9501174 C12.9536991,11.8809067 13.0229098,11.846288 13.0921338,11.7770773 L13.0575151,11.8116827 C13.1267258,11.742472 13.2651606,11.6732613 13.2997659,11.6040506 C13.3084172,11.5867479 13.3105792,11.5716081 13.3094968,11.5575497 L13.2900275,11.4775248 L13.2997659,11.4310239 C13.2997659,11.3617998 13.3689632,11.3964185 13.4035819,11.3617998 C13.4381873,11.2925891 13.4381873,11.2233918 13.4727926,11.1887731 C13.507398,11.1195624 13.5766086,11.1195624 13.611214,11.0849571 C13.680438,10.981141 13.7150434,10.877325 13.8188594,10.8427063 C13.9226754,10.7734956 14.0264915,10.6350742 14.1649262,10.7042849 C14.0957022,10.7734956 13.9918995,10.808101 13.9572808,10.8427063 C13.9226754,10.877325 14.1303075,10.8427063 14.1649262,10.8427063 C14.2687422,10.808101 14.3379529,10.7388903 14.441769,10.6696796 C14.6147957,10.5658502 14.7878358,10.5658502 14.9954678,10.6004689 C15.0300865,10.6350742 14.8916652,10.3928235 14.8570465,10.3582315 C14.7878358,10.2890074 14.7532304,10.2197968 14.6494144,10.3236128 C14.614809,10.3582181 14.5802037,10.4620342 14.545585,10.4966395 C14.4763743,10.6004689 14.4763743,10.6004689 14.3379529,10.6696796 L14.3725583,10.6696796 C14.2341369,10.7042849 14.1303209,10.7388903 14.0957022,10.6004689 C14.0610968,10.5312582 14.1303209,10.4620475 14.0957022,10.4274288 C14.0264915,10.3236128 13.7842541,10.5312449 13.680438,10.5658636 C13.7150434,10.1851914 14.1649262,10.3928235 14.4071636,10.3236128 C14.4763743,10.2890074 14.7186251,10.2197968 14.7186251,10.1505861 C14.7532304,10.0467567 14.510993,9.90834867 14.4763743,9.87372996 C14.3725583,9.76991393 14.3379529,9.73530858 14.2687422,9.59687384 C14.1995316,9.45846584 14.1649262,9.3200311 13.9918861,9.42384713 C13.9572808,9.45845247 13.9918861,9.5622685 13.8880701,9.5622685 C13.8188594,9.5622685 13.7496487,9.49307118 13.7150434,9.45845247 C13.680438,9.38924178 13.611214,9.25082041 13.507398,9.25082041 C13.4035686,9.21621507 13.1613312,9.11238567 13.0575151,9.18159636 C12.9536991,9.25082041 13.0575151,9.49305781 13.0921205,9.5622685 C13.1267258,9.73530858 13.1613312,9.76991393 13.0229098,9.87372996 C12.9536991,9.9083353 12.8844884,9.87372996 12.9190804,10.0121513 C12.9190804,10.1159807 13.0229098,10.1159807 12.9536991,10.185178 C12.9190938,10.2544021 12.8152777,10.2544021 12.7806724,10.2197968 C12.6422376,10.1505861 12.7806724,10.0813754 12.7114617,9.97754599 C12.676843,9.9083353 12.4346056,9.83912461 12.3307895,9.80451927 C12.1231441,9.73530858 11.6040506,9.63149255 11.7770773,9.3200311 C11.8116827,9.25082041 11.9847227,9.11239903 12.0539334,9.07778033 C12.1231441,9.00856964 12.2269601,9.00856964 12.2961708,8.93935895 C12.3307762,8.90475361 12.3307762,8.80093758 12.3653949,8.76633223 C12.4000002,8.69710818 12.5384216,8.73172689 12.6076323,8.73172689 C12.8844884,8.66250284 12.6422376,8.24723871 13.0229098,8.3164494 C13.1613312,8.3164494 13.2651472,8.45487078 13.2997659,8.48947612 C13.4035819,8.55868681 13.4381873,8.55868681 13.4035819,8.66250284 C13.4035819,8.69712155 13.2997659,8.80092421 13.2651606,8.83554292 C13.1959365,8.8701349 13.1267258,8.8701349 13.0575151,8.90475361 C13.2651606,8.90475361 13.3343712,8.90475361 13.507398,9.00856964 C13.6458193,9.07778033 13.7496487,9.14700438 13.9226754,9.14700438 C13.8880701,9.07778033 13.7496487,9.07778033 13.7496487,9.00856964 C13.7496487,8.93935895 13.8534648,9.04317498 13.8534648,9.04317498 C13.8880701,9.04317498 14.0265048,9.11238567 13.9918861,8.97396429 C13.9572808,8.83554292 13.7150434,8.90475361 13.7842541,8.69712155 C13.9226754,8.66250284 13.8880701,8.80092421 13.9572808,8.83554292 C14.0264915,8.87014826 14.1303075,8.76633223 14.1649262,8.69712155 C14.0264915,8.66250284 13.6804247,8.55868681 13.7150434,8.38566009 C13.9572808,8.52408146 14.1995316,8.69712155 14.441769,8.83554292 C14.2687422,9.00856964 14.5801903,8.90475361 14.614809,8.90475361 C14.6840064,8.93935895 14.8224411,9.04317498 14.7186251,9.07778033 C14.614809,9.11239903 14.5802037,8.97396429 14.4763743,9.07778033 C14.5802037,9.11238567 14.8570465,9.11238567 14.7878358,9.28542575 C14.7532304,9.35463644 14.5802037,9.3200311 14.5109796,9.45846584 L14.6494144,9.45846584 C14.545585,9.59687384 14.6840197,9.70070324 14.7532304,9.80451927 C14.8570465,9.94294065 14.9608625,10.1505727 15.1339026,10.1851914 C15.4799694,10.2544021 15.4453507,9.70070324 15.7222068,9.59688721 C15.7914175,9.5622685 15.8952335,9.59688721 15.9644575,9.5622685 C16.0682736,9.52766316 16.1028789,9.45846584 16.1720896,9.42384713 C16.3451163,9.3200311 16.4835511,9.3200311 16.6911965,9.3200311 L16.5125357,9.13408385 C15.8373264,8.46857773 14.9464536,7.98480038 14.0264915,7.76273717 C13.8880701,7.79735588 13.7842541,7.86656657 13.680438,7.93576389 C13.7496487,7.9703826 13.7842541,7.9703826 13.8534648,7.9703826 C13.7842541,8.21262001 13.3689766,8.03959329 13.1959365,8.03959329 C13.3343712,7.9703826 13.5420033,7.90117191 13.6458193,7.83196123 C13.680438,7.79735588 13.6458193,7.76273717 13.71503,7.7281452 C13.4727926,7.7281452 13.2305552,7.69352649 12.9883044,7.69352649 Z M17.8678049,11.1541544 L17.8331996,11.1887731 C17.7985942,11.2233785 17.7639889,11.2233785 17.7293702,11.2579838 C17.6947782,11.2925891 17.7293702,11.3271945 17.6947782,11.3617998 C17.6947782,11.3617998 17.6601595,11.3617998 17.6601595,11.3964052 C17.6255541,11.4310239 17.6601595,11.5002346 17.6947648,11.5694453 C17.6947648,11.6386559 17.6601595,11.6732613 17.6947648,11.742472 L17.8331996,11.8809067 C17.8678049,11.9154987 17.9024102,11.9501174 17.9716209,11.9501174 L18.075437,11.9154987 C18.0408316,11.6386559 17.9716209,11.3964052 17.8678049,11.1541544 Z" id="形状结合" fill="#FFFFFF" fill-rule="nonzero"></path>
                <g id="编组-5" transform="translate(13.000000, 13.000000)">
                    <circle id="椭圆形备份" cx="3" cy="3" r="3"></circle>
                    <path d="M3,0 C4.65110565,0 6,1.34152334 6,3 C6,4.65847666 4.65847666,6 3,6 C1.34152334,6 0,4.65847666 0,3 C0,1.34152334 1.34889435,0 3,0 Z M2.88943489,1.31941032 C2.66830467,1.31941032 2.48402948,1.5036855 2.48402948,1.72481572 L2.48402948,3.28009828 C2.48402948,3.39066339 2.52825553,3.48648649 2.6019656,3.56756757 L3.33169533,4.3046683 C3.40540541,4.37837838 3.50859951,4.42260442 3.61916462,4.42260442 C3.72972973,4.42260442 3.82555283,4.37837838 3.90663391,4.3046683 C3.98034398,4.23095823 4.02457002,4.12776413 4.02457002,4.01719902 C4.02457002,3.90663391 3.98034398,3.8034398 3.90663391,3.72972973 L3.29484029,3.11056511 L3.29484029,1.72481572 C3.29484029,1.5036855 3.11056511,1.31941032 2.88943489,1.31941032 Z" id="形状结合" fill="#FFFFFF" fill-rule="nonzero"></path>
                </g>
            </g>
        </g>
    </g>
</svg>