<?xml version="1.0" encoding="UTF-8"?>
<svg width="18px" height="18px" viewBox="0 0 18 18" version="1.1" xmlns="http://www.w3.org/2000/svg" xmlns:xlink="http://www.w3.org/1999/xlink">
    <title>Icon/18/用户@3x</title>
    <defs>
        <rect id="path-1" x="0" y="0" width="18" height="18"></rect>
    </defs>
    <g id="Icon/18/用户" stroke="none" stroke-width="1" fill="none" fill-rule="evenodd">
        <g id="椭圆形-+-路径-+-路径-9蒙版">
            <mask id="mask-2" fill="white">
                <use xlink:href="#path-1"></use>
            </mask>
            <g id="蒙版"></g>
            <path d="M12.1304348,10.7934783 C12.8838232,10.7934783 13.5658884,11.0988493 14.0596065,11.5925674 C14.5533247,12.0862855 14.8586957,12.7683507 14.8586957,13.5217391 C14.8586957,14.2751276 14.5533247,14.9571928 14.0596065,15.4509109 C13.5658884,15.944629 12.8838232,16.25 12.1304348,16.25 C11.3770463,16.25 10.6949811,15.944629 10.201263,15.4509109 C9.70754491,14.9571928 9.40217391,14.2751276 9.40217391,13.5217391 C9.40217391,12.7683507 9.70754491,12.0862855 10.201263,11.5925674 C10.6949811,11.0988493 11.3770463,10.7934783 12.1304348,10.7934783 Z" id="椭圆形" stroke="#FC708B" stroke-width="1.5" mask="url(#mask-2)"></path>
            <path d="M9,8.65217391 C11.1130895,8.65217391 12.826087,6.93917643 12.826087,4.82608696 C12.826087,2.71299748 11.1130895,1 9,1 C6.88691052,1 5.17391304,2.71299748 5.17391304,4.82608696 C5.17391304,5.41906818 5.30881021,5.98054248 5.54959088,6.48149619" id="路径" stroke="#000000" stroke-width="1.5" stroke-linecap="round" stroke-linejoin="round" mask="url(#mask-2)"></path>
            <path d="M9.2626997,8.65217391 C5.53067411,8.65217391 2.5052696,11.6775784 2.5052696,15.409604 L2.5052696,15.6357012 L2.5052696,15.6357012" id="路径-9" stroke="#000000" stroke-width="1.5" stroke-linecap="round" stroke-linejoin="round" mask="url(#mask-2)"></path>
        </g>
    </g>
</svg>