<?xml version="1.0" encoding="UTF-8"?>
<svg width="18px" height="18px" viewBox="0 0 18 18" version="1.1" xmlns="http://www.w3.org/2000/svg" xmlns:xlink="http://www.w3.org/1999/xlink">
    <title>Icon/18/游戏@3x</title>
    <defs>
        <rect id="path-1" x="0" y="0" width="18" height="18"></rect>
    </defs>
    <g id="Icon/18/游戏" stroke="none" stroke-width="1" fill="none" fill-rule="evenodd">
        <g id="路径-+-路径-+-路径-+-路径-+-路径-+-路径蒙版">
            <mask id="mask-2" fill="white">
                <use xlink:href="#path-1"></use>
            </mask>
            <g id="蒙版"></g>
            <path d="M12.2694622,2.75 C13.6461314,2.75 14.891206,3.30672414 15.7921266,4.20758102 C16.6932951,5.10868576 17.2500007,6.35396988 17.2500007,7.73013306 L17.2500009,13.8658682 C17.2502765,14.2089808 17.1140822,14.5381168 16.871442,14.7807114 C16.628802,15.0233059 16.2996408,15.1594384 15.9557847,15.1590978 L14.3169547,15.1590978 C13.5976572,15.1590978 12.7321866,14.725922 12.3000072,14.149998 L11.0721809,12.5129037 C10.8467989,12.2131646 10.1934716,11.8863639 9.81614548,11.8863639 L8.1838737,11.8863639 C7.80654755,11.8863639 7.1532203,12.2131646 6.92728401,12.5136417 L5.6999742,14.1500484 C5.26802007,14.7260858 4.40226633,15.1590978 3.68304533,15.1590978 L2.04349573,15.1590982 C1.70037927,15.1594449 1.37121179,15.0233152 1.12856657,14.7807201 C0.885921636,14.5381252 0.749724007,14.2089862 0.750000664,13.8652659 L0.750000664,7.73015223 C0.750000664,6.35398678 1.30670753,5.10869663 2.2078778,4.20758687 C3.10879757,3.30672761 4.35387021,2.75 5.73053775,2.75 Z" id="路径" stroke="#000000" stroke-width="1.5" fill-rule="nonzero" mask="url(#mask-2)"></path>
            <path d="M6.13636209,6.90908808 L6.95454983,6.90908808 C7.40642244,6.90908808 7.77273757,7.2754032 7.77273757,7.72727581 C7.77273757,8.17914842 7.40642244,8.54546355 6.95454983,8.54546355 L6.13638127,8.54546355 L6.13638127,9.36363211 C6.13638127,9.81550473 5.77006614,10.1818199 5.31819353,10.1818199 C4.86632092,10.1818199 4.50000579,9.81550473 4.50000579,9.36363211 L4.50000579,8.54546355 L3.68183723,8.54546355 C3.22996462,8.54546355 2.86364949,8.17914842 2.86364949,7.72727581 C2.86364949,7.2754032 3.22996462,6.90908808 3.68183723,6.90908808 L4.50000579,6.90908808 L4.50000579,6.09091951 C4.50000579,5.6390469 4.86632092,5.27273178 5.31819353,5.27273178 C5.77006614,5.27273178 6.13638127,5.6390469 6.13638127,6.09091951 L6.13638127,6.90908808 L6.13636209,6.90908808 Z" id="路径" fill="#FC708B" fill-rule="nonzero" mask="url(#mask-2)"></path>
            <path d="M12.6818256,6.50001343 C12.3885751,6.5014235 12.116991,6.34579086 11.9699544,6.09206243 C11.8229177,5.838334 11.8229177,5.52531729 11.9699544,5.27158886 C12.116991,5.01786044 12.3885751,4.8622278 12.6818256,4.86363786 C13.1321469,4.86582761 13.4960524,5.23149914 13.4960524,5.68182565 C13.4960524,6.13215215 13.1321469,6.49782368 12.6818256,6.50001343 Z" id="路径" fill="#FC708B" fill-rule="nonzero" mask="url(#mask-2)"></path>
            <path d="M12.6818256,10.5909138 C12.3885751,10.5923238 12.116991,10.4366912 11.9699544,10.1829628 C11.8229177,9.92923434 11.8229177,9.61621762 11.9699544,9.3624892 C12.116991,9.10876077 12.3885751,8.95312813 12.6818256,8.9545382 C13.1321469,8.95672795 13.4960524,9.32239947 13.4960524,9.77272598 C13.4960524,10.2230525 13.1321469,10.588724 12.6818256,10.5909138 L12.6818256,10.5909138 Z" id="路径" fill="#FC708B" fill-rule="nonzero" mask="url(#mask-2)"></path>
            <path d="M10.6363659,8.54546355 C10.1844933,8.54546355 9.81817815,8.17914842 9.81817815,7.72727581 C9.81817815,7.2754032 10.1844933,6.90908808 10.6363659,6.90908808 C11.0882385,6.90908808 11.4545536,7.27540322 11.4545536,7.72727581 C11.4545536,8.17914841 11.0882385,8.54546355 10.6363659,8.54546355 Z" id="路径" fill="#FC708B" fill-rule="nonzero" mask="url(#mask-2)"></path>
            <path d="M14.7272854,8.54546355 C14.2754128,8.54546355 13.9090977,8.17914842 13.9090977,7.72727581 C13.9090977,7.2754032 14.2754128,6.90908808 14.7272854,6.90908808 C15.179158,6.90908808 15.5454731,7.27540322 15.5454731,7.72727581 C15.5454731,8.17914841 15.179158,8.54546355 14.7272854,8.54546355 L14.7272854,8.54546355 Z" id="路径" fill="#FC708B" fill-rule="nonzero" mask="url(#mask-2)"></path>
        </g>
    </g>
</svg>