<?xml version="1.0" encoding="UTF-8"?>
<svg width="18px" height="18px" viewBox="0 0 18 18" version="1.1" xmlns="http://www.w3.org/2000/svg" xmlns:xlink="http://www.w3.org/1999/xlink">
    <title>Icon/18/直播@3x</title>
    <defs>
        <rect id="path-1" x="0" y="0" width="18" height="18"></rect>
    </defs>
    <g id="Icon/18/直播" stroke="none" stroke-width="1" fill="none" fill-rule="evenodd">
        <g id="路径-+-路径-11-+-路径-12蒙版">
            <mask id="mask-2" fill="white">
                <use xlink:href="#path-1"></use>
            </mask>
            <g id="蒙版"></g>
            <path d="M17,8.18529947 L17,12.5539977 C17,13.6585672 16.2040618,14.5539977 15.2222222,14.5539977 L2.77777778,14.5539977 C1.79593822,14.5539977 1,13.6585672 1,12.5539977 L1,3.55399767 C1,2.44942817 1.79593822,1.55399767 2.77777778,1.55399767 L15.2222222,1.55399767 C16.2040618,1.55399767 17,2.44942817 17,3.55399767 L17,5.10358853" id="路径" stroke="#000000" stroke-width="1.5" stroke-linecap="round" stroke-linejoin="bevel" mask="url(#mask-2)"></path>
            <line x1="2.73518968" y1="16.5539977" x2="15.186939" y2="16.5539977" id="路径-11" stroke="#000000" stroke-width="1.5" stroke-linecap="round" stroke-linejoin="round" mask="url(#mask-2)"></line>
        </g>
        <path d="M10.5868087,6.54516807 L12.3377012,9.51936754 C12.6178828,9.99530529 12.459191,10.6082611 11.9832533,10.8884426 C11.8295079,10.9789516 11.654348,11.0266811 11.4759397,11.0266811 L7.97415474,11.0266811 C7.42187,11.0266811 6.97415474,10.5789659 6.97415474,10.0266811 C6.97415474,9.84827281 7.02188426,9.67311295 7.11239322,9.51936754 L8.86328569,6.54516807 C9.14346724,6.06923032 9.75642304,5.91053856 10.2323608,6.19072012 C10.3786863,6.27686102 10.5006678,6.39884255 10.5868087,6.54516807 Z" id="三角形" fill="#FC708B" transform="translate(9.725047, 8.053998) rotate(90.000000) translate(-9.725047, -8.053998) "></path>
    </g>
</svg>